<?xml version='1.0' encoding='UTF-8'?>
<!DOCTYPE svg PUBLIC "-//W3C//DTD SVG 1.0//EN" "http://www.w3.org/TR/2001/REC-SVG-20010904/DTD/svg10.dtd">
<svg viewBox="0 0 760 732" xmlns="http://www.w3.org/2000/svg" xmlns:inkspace="http://www.inkscape.org/namespaces/inkscape" xmlns:xlink="http://www.w3.org/1999/xlink" width="760px" height="732px">
  <defs id="defs_block">
    <filter height="1.504" id="filter_blur" inkspace:collect="always" width="1.1575" x="-0.07875" y="-0.252">
      <feGaussianBlur id="feGaussianBlur3780" inkspace:collect="always" stdDeviation="4.2" />
    </filter>
  </defs>
  <title>blockdiag</title>
  <desc>nwdiag {
	inet
	terminal
	inet -- terminal
	network  {
		address = "192.168.100.x"
		terminal [address = "192.168.100.1"]
		router [address = "192.168.100.2"]
	}
	network  {
		address = "192.168.101.x"
		router [address = "192.168.101.1"]
		Raspberry [address = "192.168.101.10, 192.168.101.11"]
		PC [address = "192.168.101.11, 192.168.101.13"]
		TV [address = "192.168.101.14, 192.168.101.15"]
	}
}
</desc>
  <rect fill="rgb(0,0,0)" height="40" stroke="rgb(0,0,0)" style="filter:url(#filter_blur);opacity:0.7;fill-opacity:1" width="104" x="155" y="162" />
  <rect fill="rgb(0,0,0)" height="40" stroke="rgb(0,0,0)" style="filter:url(#filter_blur);opacity:0.7;fill-opacity:1" width="104" x="155" y="306" />
  <rect fill="rgb(0,0,0)" height="40" stroke="rgb(0,0,0)" style="filter:url(#filter_blur);opacity:0.7;fill-opacity:1" width="104" x="307" y="450" />
  <rect fill="rgb(0,0,0)" height="40" stroke="rgb(0,0,0)" style="filter:url(#filter_blur);opacity:0.7;fill-opacity:1" width="104" x="155" y="594" />
  <rect fill="rgb(0,0,0)" height="40" stroke="rgb(0,0,0)" style="filter:url(#filter_blur);opacity:0.7;fill-opacity:1" width="104" x="459" y="594" />
  <rect fill="rgb(0,0,0)" height="40" stroke="rgb(0,0,0)" style="filter:url(#filter_blur);opacity:0.7;fill-opacity:1" width="104" x="611" y="594" />
  <path d="M 131 391 L 435 391 A2,4 0 0 1 435 399 L 131 399 A2,4 0 0 1 131 391" fill="rgb(0,0,0)" style="filter:url(#filter_blur)" />
  <path d="M 131 535 L 739 535 A2,4 0 0 1 739 543 L 131 543 A2,4 0 0 1 131 535" fill="rgb(0,0,0)" style="filter:url(#filter_blur)" />
  <path d="M 128 388 L 432 388 A2,4 0 0 1 432 396 L 128 396 A2,4 0 0 1 128 388" fill="rgb(185,203,228)" stroke="rgb(0,0,0)" />
  <path d="M 432 396 A2,4 0 0 1 432 388" fill="none" stroke="rgb(0,0,0)" />
  <path d="M 128 388 L 432 388" fill="none" stroke="none" />
  <path d="M 128 532 L 736 532 A2,4 0 0 1 736 540 L 128 540 A2,4 0 0 1 128 532" fill="rgb(185,203,228)" stroke="rgb(0,0,0)" />
  <path d="M 736 540 A2,4 0 0 1 736 532" fill="none" stroke="rgb(0,0,0)" />
  <path d="M 128 532 L 736 532" fill="none" stroke="none" />
  <text fill="rgb(0,0,0)" font-family="sans-serif" font-size="11" font-style="normal" font-weight="normal" text-anchor="middle" textLength="79" x="80.5" y="398">192.168.100.x</text>
  <text fill="rgb(0,0,0)" font-family="sans-serif" font-size="11" font-style="normal" font-weight="normal" text-anchor="middle" textLength="79" x="80.5" y="542">192.168.101.x</text>
  <path d="M 204 104 L 204 156" fill="none" stroke="rgb(0,0,0)" />
  <path d="M 204 196 L 204 248" fill="none" stroke="rgb(0,0,0)" />
  <rect fill="rgb(255,255,255)" height="40" stroke="rgb(0,0,0)" width="104" x="152" y="156" />
  <text fill="rgb(0,0,0)" font-family="sans-serif" font-size="11" font-style="normal" font-weight="normal" text-anchor="middle" textLength="25" x="204.5" y="182">inet</text>
  <path d="M 204 248 L 204 300" fill="none" stroke="rgb(0,0,0)" />
  <path d="M 204 340 L 204 388" fill="none" stroke="rgb(0,0,0)" />
  <text fill="rgb(0,0,0)" font-family="sans-serif" font-size="11" font-style="normal" font-weight="normal" text-anchor="middle" textLength="79" x="255.5" y="368">192.168.100.1</text>
  <rect fill="rgb(255,255,255)" height="40" stroke="rgb(0,0,0)" width="104" x="152" y="300" />
  <text fill="rgb(0,0,0)" font-family="sans-serif" font-size="11" font-style="normal" font-weight="normal" text-anchor="middle" textLength="49" x="204.5" y="326">terminal</text>
  <path d="M 356 396 L 356 444" fill="none" stroke="rgb(0,0,0)" />
  <text fill="rgb(0,0,0)" font-family="sans-serif" font-size="11" font-style="normal" font-weight="normal" text-anchor="middle" textLength="79" x="407.5" y="424">192.168.100.2</text>
  <path d="M 356 484 L 356 532" fill="none" stroke="rgb(0,0,0)" />
  <text fill="rgb(0,0,0)" font-family="sans-serif" font-size="11" font-style="normal" font-weight="normal" text-anchor="middle" textLength="79" x="407.5" y="512">192.168.101.1</text>
  <rect fill="rgb(255,255,255)" height="40" stroke="rgb(0,0,0)" width="104" x="304" y="444" />
  <text fill="rgb(0,0,0)" font-family="sans-serif" font-size="11" font-style="normal" font-weight="normal" text-anchor="middle" textLength="37" x="356.5" y="470">router</text>
  <path d="M 204 540 L 204 588" fill="none" stroke="rgb(0,0,0)" />
  <text fill="rgb(0,0,0)" font-family="sans-serif" font-size="11" font-style="normal" font-weight="normal" text-anchor="middle" textLength="85" x="258.5" y="561">192.168.101.10</text>
  <text fill="rgb(0,0,0)" font-family="sans-serif" font-size="11" font-style="normal" font-weight="normal" text-anchor="middle" textLength="85" x="258.5" y="574">192.168.101.11</text>
  <rect fill="rgb(255,255,255)" height="40" stroke="rgb(0,0,0)" width="104" x="152" y="588" />
  <text fill="rgb(0,0,0)" font-family="sans-serif" font-size="11" font-style="normal" font-weight="normal" text-anchor="middle" textLength="55" x="204.5" y="614">Raspberry</text>
  <path d="M 508 540 L 508 588" fill="none" stroke="rgb(0,0,0)" />
  <text fill="rgb(0,0,0)" font-family="sans-serif" font-size="11" font-style="normal" font-weight="normal" text-anchor="middle" textLength="85" x="562.5" y="561">192.168.101.11</text>
  <text fill="rgb(0,0,0)" font-family="sans-serif" font-size="11" font-style="normal" font-weight="normal" text-anchor="middle" textLength="85" x="562.5" y="574">192.168.101.13</text>
  <rect fill="rgb(255,255,255)" height="40" stroke="rgb(0,0,0)" width="104" x="456" y="588" />
  <text fill="rgb(0,0,0)" font-family="sans-serif" font-size="11" font-style="normal" font-weight="normal" text-anchor="middle" textLength="13" x="508.5" y="614">PC</text>
  <path d="M 660 540 L 660 588" fill="none" stroke="rgb(0,0,0)" />
  <text fill="rgb(0,0,0)" font-family="sans-serif" font-size="11" font-style="normal" font-weight="normal" text-anchor="middle" textLength="85" x="714.5" y="561">192.168.101.14</text>
  <text fill="rgb(0,0,0)" font-family="sans-serif" font-size="11" font-style="normal" font-weight="normal" text-anchor="middle" textLength="85" x="714.5" y="574">192.168.101.15</text>
  <rect fill="rgb(255,255,255)" height="40" stroke="rgb(0,0,0)" width="104" x="608" y="588" />
  <text fill="rgb(0,0,0)" font-family="sans-serif" font-size="11" font-style="normal" font-weight="normal" text-anchor="middle" textLength="13" x="660.5" y="614">TV</text>
</svg>