<?xml version="1.0" encoding="UTF-8" standalone="no"?>
<!DOCTYPE svg PUBLIC "-//W3C//DTD SVG 1.1//EN"
 "http://www.w3.org/Graphics/SVG/1.1/DTD/svg11.dtd">
<!-- Generated by graphviz version 5.0.0 (20220707.1540)
 -->
<!-- Title: dependencies Pages: 1 -->
<svg width="1756pt" height="247pt"
 viewBox="0.00 0.00 1756.00 246.80" xmlns="http://www.w3.org/2000/svg" xmlns:xlink="http://www.w3.org/1999/xlink">
<g id="graph0" class="graph" transform="scale(1 1) rotate(0) translate(4 242.8)">
<title>dependencies</title>
<polygon fill="white" stroke="transparent" points="-4,4 -4,-242.8 1752,-242.8 1752,4 -4,4"/>
<text text-anchor="middle" x="874" y="-8.2" font-family="sans-serif" font-size="14.00">dependencies</text>
<g id="clust1" class="cluster">
<title>cluster_AppModule</title>
<polygon fill="none" stroke="black" stroke-dasharray="1,5" points="8,-32.8 8,-230.8 1740,-230.8 1740,-32.8 8,-32.8"/>
</g>
<g id="clust2" class="cluster">
<title>cluster_AppModule_declarations</title>
<polygon fill="none" stroke="black" points="168,-40.8 168,-92.8 1732,-92.8 1732,-40.8 168,-40.8"/>
</g>
<g id="clust13" class="cluster">
<title>cluster_AppModule_imports</title>
<polygon fill="none" stroke="black" points="16,-40.8 16,-92.8 160,-92.8 160,-40.8 16,-40.8"/>
</g>
<g id="clust15" class="cluster">
<title>cluster_AppModule_bootstrap</title>
<polygon fill="none" stroke="black" points="898,-170.8 898,-222.8 1022,-222.8 1022,-170.8 898,-170.8"/>
</g>
<!-- AppComponent -->
<g id="node1" class="node">
<title>AppComponent</title>
<polygon fill="#ffffb3" stroke="black" points="1723.94,-84.8 1618.06,-84.8 1618.06,-48.8 1723.94,-48.8 1723.94,-84.8"/>
<text text-anchor="middle" x="1671" y="-62.6" font-family="Times,serif" font-size="14.00">AppComponent</text>
</g>
<!-- AppModule -->
<g id="node11" class="node">
<title>AppModule</title>
<polygon fill="#8dd3c7" stroke="black" points="1001.66,-149.8 998.66,-153.8 977.66,-153.8 974.66,-149.8 918.34,-149.8 918.34,-113.8 1001.66,-113.8 1001.66,-149.8"/>
<text text-anchor="middle" x="960" y="-127.6" font-family="Times,serif" font-size="14.00">AppModule</text>
</g>
<!-- AppComponent&#45;&gt;AppModule -->
<g id="edge1" class="edge">
<title>AppComponent&#45;&gt;AppModule</title>
<path fill="none" stroke="black" d="M1671,-85.05C1671,-107.82 1671,-143.8 1671,-143.8 1671,-143.8 1011.82,-143.8 1011.82,-143.8"/>
<polygon fill="black" stroke="black" points="1011.82,-140.3 1001.82,-143.8 1011.82,-147.3 1011.82,-140.3"/>
</g>
<!-- OaAnalogComponent -->
<g id="node2" class="node">
<title>OaAnalogComponent</title>
<polygon fill="#ffffb3" stroke="black" points="1600.37,-84.8 1461.63,-84.8 1461.63,-48.8 1600.37,-48.8 1600.37,-84.8"/>
<text text-anchor="middle" x="1531" y="-62.6" font-family="Times,serif" font-size="14.00">OaAnalogComponent</text>
</g>
<!-- OaAnalogComponent&#45;&gt;AppModule -->
<g id="edge2" class="edge">
<title>OaAnalogComponent&#45;&gt;AppModule</title>
<path fill="none" stroke="black" d="M1531,-85.08C1531,-106.12 1531,-137.8 1531,-137.8 1531,-137.8 1011.99,-137.8 1011.99,-137.8"/>
<polygon fill="black" stroke="black" points="1011.99,-134.3 1001.99,-137.8 1011.99,-141.3 1011.99,-134.3"/>
</g>
<!-- QualComponent -->
<g id="node3" class="node">
<title>QualComponent</title>
<polygon fill="#ffffb3" stroke="black" points="1443.05,-84.8 1334.95,-84.8 1334.95,-48.8 1443.05,-48.8 1443.05,-84.8"/>
<text text-anchor="middle" x="1389" y="-62.6" font-family="Times,serif" font-size="14.00">QualComponent</text>
</g>
<!-- QualComponent&#45;&gt;AppModule -->
<g id="edge3" class="edge">
<title>QualComponent&#45;&gt;AppModule</title>
<path fill="none" stroke="black" d="M1389,-84.91C1389,-104.14 1389,-131.8 1389,-131.8 1389,-131.8 1011.92,-131.8 1011.92,-131.8"/>
<polygon fill="black" stroke="black" points="1011.92,-128.3 1001.92,-131.8 1011.92,-135.3 1011.92,-128.3"/>
</g>
<!-- SigBoolComponent -->
<g id="node4" class="node">
<title>SigBoolComponent</title>
<polygon fill="#ffffb3" stroke="black" points="1316.73,-84.8 1189.27,-84.8 1189.27,-48.8 1316.73,-48.8 1316.73,-84.8"/>
<text text-anchor="middle" x="1253" y="-62.6" font-family="Times,serif" font-size="14.00">SigBoolComponent</text>
</g>
<!-- SigBoolComponent&#45;&gt;AppModule -->
<g id="edge4" class="edge">
<title>SigBoolComponent&#45;&gt;AppModule</title>
<path fill="none" stroke="black" d="M1253,-84.82C1253,-102.17 1253,-125.8 1253,-125.8 1253,-125.8 1011.67,-125.8 1011.67,-125.8"/>
<polygon fill="black" stroke="black" points="1011.67,-122.3 1001.67,-125.8 1011.67,-129.3 1011.67,-122.3"/>
</g>
<!-- SigFloatComponent -->
<g id="node5" class="node">
<title>SigFloatComponent</title>
<polygon fill="#ffffb3" stroke="black" points="1171.29,-84.8 1042.71,-84.8 1042.71,-48.8 1171.29,-48.8 1171.29,-84.8"/>
<text text-anchor="middle" x="1107" y="-62.6" font-family="Times,serif" font-size="14.00">SigFloatComponent</text>
</g>
<!-- SigFloatComponent&#45;&gt;AppModule -->
<g id="edge5" class="edge">
<title>SigFloatComponent&#45;&gt;AppModule</title>
<path fill="none" stroke="black" d="M1107,-85.04C1107,-100.37 1107,-119.8 1107,-119.8 1107,-119.8 1011.73,-119.8 1011.73,-119.8"/>
<polygon fill="black" stroke="black" points="1011.73,-116.3 1001.73,-119.8 1011.73,-123.3 1011.73,-116.3"/>
</g>
<!-- YeelightComponent -->
<g id="node6" class="node">
<title>YeelightComponent</title>
<polygon fill="#ffffb3" stroke="black" points="1024.54,-84.8 895.46,-84.8 895.46,-48.8 1024.54,-48.8 1024.54,-84.8"/>
<text text-anchor="middle" x="960" y="-62.6" font-family="Times,serif" font-size="14.00">YeelightComponent</text>
</g>
<!-- YeelightComponent&#45;&gt;AppModule -->
<g id="edge6" class="edge">
<title>YeelightComponent&#45;&gt;AppModule</title>
<path fill="none" stroke="black" d="M960,-84.91C960,-84.91 960,-103.79 960,-103.79"/>
<polygon fill="black" stroke="black" points="956.5,-103.79 960,-113.79 963.5,-103.79 956.5,-103.79"/>
</g>
<!-- ZhaHumidityComponent -->
<g id="node7" class="node">
<title>ZhaHumidityComponent</title>
<polygon fill="#ffffb3" stroke="black" points="877.27,-84.8 720.73,-84.8 720.73,-48.8 877.27,-48.8 877.27,-84.8"/>
<text text-anchor="middle" x="799" y="-62.6" font-family="Times,serif" font-size="14.00">ZhaHumidityComponent</text>
</g>
<!-- ZhaHumidityComponent&#45;&gt;AppModule -->
<g id="edge7" class="edge">
<title>ZhaHumidityComponent&#45;&gt;AppModule</title>
<path fill="none" stroke="black" d="M799,-85.04C799,-100.37 799,-119.8 799,-119.8 799,-119.8 908.12,-119.8 908.12,-119.8"/>
<polygon fill="black" stroke="black" points="908.12,-123.3 918.12,-119.8 908.12,-116.3 908.12,-123.3"/>
</g>
<!-- ZhaOpenCloseComponent -->
<g id="node8" class="node">
<title>ZhaOpenCloseComponent</title>
<polygon fill="#ffffb3" stroke="black" points="702.81,-84.8 537.19,-84.8 537.19,-48.8 702.81,-48.8 702.81,-84.8"/>
<text text-anchor="middle" x="620" y="-62.6" font-family="Times,serif" font-size="14.00">ZhaOpenCloseComponent</text>
</g>
<!-- ZhaOpenCloseComponent&#45;&gt;AppModule -->
<g id="edge8" class="edge">
<title>ZhaOpenCloseComponent&#45;&gt;AppModule</title>
<path fill="none" stroke="black" d="M620,-84.82C620,-102.17 620,-125.8 620,-125.8 620,-125.8 908.31,-125.8 908.31,-125.8"/>
<polygon fill="black" stroke="black" points="908.31,-129.3 918.31,-125.8 908.31,-122.3 908.31,-129.3"/>
</g>
<!-- ZhaPressureComponent -->
<g id="node9" class="node">
<title>ZhaPressureComponent</title>
<polygon fill="#ffffb3" stroke="black" points="519.03,-84.8 368.97,-84.8 368.97,-48.8 519.03,-48.8 519.03,-84.8"/>
<text text-anchor="middle" x="444" y="-62.6" font-family="Times,serif" font-size="14.00">ZhaPressureComponent</text>
</g>
<!-- ZhaPressureComponent&#45;&gt;AppModule -->
<g id="edge9" class="edge">
<title>ZhaPressureComponent&#45;&gt;AppModule</title>
<path fill="none" stroke="black" d="M444,-84.91C444,-104.14 444,-131.8 444,-131.8 444,-131.8 908.21,-131.8 908.21,-131.8"/>
<polygon fill="black" stroke="black" points="908.21,-135.3 918.21,-131.8 908.21,-128.3 908.21,-135.3"/>
</g>
<!-- ZhaTemperatureComponent -->
<g id="node10" class="node">
<title>ZhaTemperatureComponent</title>
<polygon fill="#ffffb3" stroke="black" points="350.11,-84.8 175.89,-84.8 175.89,-48.8 350.11,-48.8 350.11,-84.8"/>
<text text-anchor="middle" x="263" y="-62.6" font-family="Times,serif" font-size="14.00">ZhaTemperatureComponent</text>
</g>
<!-- ZhaTemperatureComponent&#45;&gt;AppModule -->
<g id="edge10" class="edge">
<title>ZhaTemperatureComponent&#45;&gt;AppModule</title>
<path fill="none" stroke="black" d="M263,-85.08C263,-106.12 263,-137.8 263,-137.8 263,-137.8 908.23,-137.8 908.23,-137.8"/>
<polygon fill="black" stroke="black" points="908.23,-141.3 918.23,-137.8 908.23,-134.3 908.23,-141.3"/>
</g>
<!-- AppComponent  -->
<g id="node13" class="node">
<title>AppComponent </title>
<polygon fill="#80b1d3" stroke="black" points="1014.44,-214.8 905.56,-214.8 905.56,-178.8 1014.44,-178.8 1014.44,-214.8"/>
<text text-anchor="middle" x="960" y="-192.6" font-family="Times,serif" font-size="14.00">AppComponent </text>
</g>
<!-- AppModule&#45;&gt;AppComponent  -->
<g id="edge12" class="edge">
<title>AppModule&#45;&gt;AppComponent </title>
<path fill="none" stroke="black" stroke-dasharray="1,5" d="M960,-149.91C960,-149.91 960,-168.79 960,-168.79"/>
<polygon fill="black" stroke="black" points="956.5,-168.79 960,-178.79 963.5,-168.79 956.5,-168.79"/>
</g>
<!-- AppRoutingModule -->
<g id="node12" class="node">
<title>AppRoutingModule</title>
<polygon fill="#8dd3c7" stroke="black" points="152.28,-84.8 149.28,-88.8 128.28,-88.8 125.28,-84.8 23.72,-84.8 23.72,-48.8 152.28,-48.8 152.28,-84.8"/>
<text text-anchor="middle" x="88" y="-62.6" font-family="Times,serif" font-size="14.00">AppRoutingModule</text>
</g>
<!-- AppRoutingModule&#45;&gt;AppModule -->
<g id="edge11" class="edge">
<title>AppRoutingModule&#45;&gt;AppModule</title>
<path fill="none" stroke="black" d="M88,-85.05C88,-107.82 88,-143.8 88,-143.8 88,-143.8 908.24,-143.8 908.24,-143.8"/>
<polygon fill="black" stroke="black" points="908.24,-147.3 918.24,-143.8 908.24,-140.3 908.24,-147.3"/>
</g>
</g>
</svg>
