<?xml version="1.0" encoding="UTF-8" standalone="no"?>
<!DOCTYPE svg PUBLIC "-//W3C//DTD SVG 1.1//EN"
 "http://www.w3.org/Graphics/SVG/1.1/DTD/svg11.dtd">
<!-- Generated by graphviz version 5.0.0 (20220707.1540)
 -->
<!-- Title: dependencies Pages: 1 -->
<svg width="1756pt" height="247pt"
 viewBox="0.00 0.00 1756.00 246.80" xmlns="http://www.w3.org/2000/svg" xmlns:xlink="http://www.w3.org/1999/xlink">
<g id="graph0" class="graph" transform="scale(1 1) rotate(0) translate(4 242.8)">
<title>dependencies</title>
<polygon fill="white" stroke="transparent" points="-4,4 -4,-242.8 1752,-242.8 1752,4 -4,4"/>
<text text-anchor="middle" x="874" y="-8.2" font-family="sans-serif" font-size="14.00">dependencies</text>
<g id="clust1" class="cluster">
<title>cluster_AppModule</title>
<polygon fill="none" stroke="black" stroke-dasharray="1,5" points="8,-32.8 8,-230.8 1740,-230.8 1740,-32.8 8,-32.8"/>
</g>
<g id="clust13" class="cluster">
<title>cluster_AppModule_imports</title>
<polygon fill="none" stroke="black" points="1588,-40.8 1588,-92.8 1732,-92.8 1732,-40.8 1588,-40.8"/>
</g>
<g id="clust15" class="cluster">
<title>cluster_AppModule_bootstrap</title>
<polygon fill="none" stroke="black" points="893,-170.8 893,-222.8 1017,-222.8 1017,-170.8 893,-170.8"/>
</g>
<g id="clust2" class="cluster">
<title>cluster_AppModule_declarations</title>
<polygon fill="none" stroke="black" points="16,-40.8 16,-92.8 1580,-92.8 1580,-40.8 16,-40.8"/>
</g>
<!-- AppComponent -->
<g id="node1" class="node">
<title>AppComponent</title>
<polygon fill="#ffffb3" stroke="black" points="1571.94,-84.8 1466.06,-84.8 1466.06,-48.8 1571.94,-48.8 1571.94,-84.8"/>
<text text-anchor="middle" x="1519" y="-62.6" font-family="Times,serif" font-size="14.00">AppComponent</text>
</g>
<!-- AppModule -->
<g id="node11" class="node">
<title>AppModule</title>
<polygon fill="#8dd3c7" stroke="black" points="996.66,-149.8 993.66,-153.8 972.66,-153.8 969.66,-149.8 913.34,-149.8 913.34,-113.8 996.66,-113.8 996.66,-149.8"/>
<text text-anchor="middle" x="955" y="-127.6" font-family="Times,serif" font-size="14.00">AppModule</text>
</g>
<!-- AppComponent&#45;&gt;AppModule -->
<g id="edge1" class="edge">
<title>AppComponent&#45;&gt;AppModule</title>
<path fill="none" stroke="black" d="M1519,-85.08C1519,-106.12 1519,-137.8 1519,-137.8 1519,-137.8 1006.93,-137.8 1006.93,-137.8"/>
<polygon fill="black" stroke="black" points="1006.93,-134.3 996.93,-137.8 1006.93,-141.3 1006.93,-134.3"/>
</g>
<!-- OaAnalogComponent -->
<g id="node2" class="node">
<title>OaAnalogComponent</title>
<polygon fill="#ffffb3" stroke="black" points="1448.37,-84.8 1309.63,-84.8 1309.63,-48.8 1448.37,-48.8 1448.37,-84.8"/>
<text text-anchor="middle" x="1379" y="-62.6" font-family="Times,serif" font-size="14.00">OaAnalogComponent</text>
</g>
<!-- OaAnalogComponent&#45;&gt;AppModule -->
<g id="edge2" class="edge">
<title>OaAnalogComponent&#45;&gt;AppModule</title>
<path fill="none" stroke="black" d="M1379,-84.91C1379,-104.14 1379,-131.8 1379,-131.8 1379,-131.8 1006.82,-131.8 1006.82,-131.8"/>
<polygon fill="black" stroke="black" points="1006.82,-128.3 996.82,-131.8 1006.82,-135.3 1006.82,-128.3"/>
</g>
<!-- QualComponent -->
<g id="node3" class="node">
<title>QualComponent</title>
<polygon fill="#ffffb3" stroke="black" points="1291.05,-84.8 1182.95,-84.8 1182.95,-48.8 1291.05,-48.8 1291.05,-84.8"/>
<text text-anchor="middle" x="1237" y="-62.6" font-family="Times,serif" font-size="14.00">QualComponent</text>
</g>
<!-- QualComponent&#45;&gt;AppModule -->
<g id="edge3" class="edge">
<title>QualComponent&#45;&gt;AppModule</title>
<path fill="none" stroke="black" d="M1237,-84.82C1237,-102.17 1237,-125.8 1237,-125.8 1237,-125.8 1006.91,-125.8 1006.91,-125.8"/>
<polygon fill="black" stroke="black" points="1006.91,-122.3 996.91,-125.8 1006.91,-129.3 1006.91,-122.3"/>
</g>
<!-- SigBoolComponent -->
<g id="node4" class="node">
<title>SigBoolComponent</title>
<polygon fill="#ffffb3" stroke="black" points="1164.73,-84.8 1037.27,-84.8 1037.27,-48.8 1164.73,-48.8 1164.73,-84.8"/>
<text text-anchor="middle" x="1101" y="-62.6" font-family="Times,serif" font-size="14.00">SigBoolComponent</text>
</g>
<!-- SigBoolComponent&#45;&gt;AppModule -->
<g id="edge4" class="edge">
<title>SigBoolComponent&#45;&gt;AppModule</title>
<path fill="none" stroke="black" d="M1101,-85.04C1101,-100.37 1101,-119.8 1101,-119.8 1101,-119.8 1006.84,-119.8 1006.84,-119.8"/>
<polygon fill="black" stroke="black" points="1006.84,-116.3 996.84,-119.8 1006.84,-123.3 1006.84,-116.3"/>
</g>
<!-- SigFloatComponent -->
<g id="node5" class="node">
<title>SigFloatComponent</title>
<polygon fill="#ffffb3" stroke="black" points="1019.29,-84.8 890.71,-84.8 890.71,-48.8 1019.29,-48.8 1019.29,-84.8"/>
<text text-anchor="middle" x="955" y="-62.6" font-family="Times,serif" font-size="14.00">SigFloatComponent</text>
</g>
<!-- SigFloatComponent&#45;&gt;AppModule -->
<g id="edge5" class="edge">
<title>SigFloatComponent&#45;&gt;AppModule</title>
<path fill="none" stroke="black" d="M955,-84.91C955,-84.91 955,-103.79 955,-103.79"/>
<polygon fill="black" stroke="black" points="951.5,-103.79 955,-113.79 958.5,-103.79 951.5,-103.79"/>
</g>
<!-- YeelightComponent -->
<g id="node6" class="node">
<title>YeelightComponent</title>
<polygon fill="#ffffb3" stroke="black" points="872.54,-84.8 743.46,-84.8 743.46,-48.8 872.54,-48.8 872.54,-84.8"/>
<text text-anchor="middle" x="808" y="-62.6" font-family="Times,serif" font-size="14.00">YeelightComponent</text>
</g>
<!-- YeelightComponent&#45;&gt;AppModule -->
<g id="edge6" class="edge">
<title>YeelightComponent&#45;&gt;AppModule</title>
<path fill="none" stroke="black" d="M808,-85.04C808,-100.37 808,-119.8 808,-119.8 808,-119.8 903.27,-119.8 903.27,-119.8"/>
<polygon fill="black" stroke="black" points="903.27,-123.3 913.27,-119.8 903.27,-116.3 903.27,-123.3"/>
</g>
<!-- ZhaHumidityComponent -->
<g id="node7" class="node">
<title>ZhaHumidityComponent</title>
<polygon fill="#ffffb3" stroke="black" points="725.27,-84.8 568.73,-84.8 568.73,-48.8 725.27,-48.8 725.27,-84.8"/>
<text text-anchor="middle" x="647" y="-62.6" font-family="Times,serif" font-size="14.00">ZhaHumidityComponent</text>
</g>
<!-- ZhaHumidityComponent&#45;&gt;AppModule -->
<g id="edge7" class="edge">
<title>ZhaHumidityComponent&#45;&gt;AppModule</title>
<path fill="none" stroke="black" d="M647,-84.82C647,-102.17 647,-125.8 647,-125.8 647,-125.8 903.14,-125.8 903.14,-125.8"/>
<polygon fill="black" stroke="black" points="903.14,-129.3 913.14,-125.8 903.14,-122.3 903.14,-129.3"/>
</g>
<!-- ZhaOpenCloseComponent -->
<g id="node8" class="node">
<title>ZhaOpenCloseComponent</title>
<polygon fill="#ffffb3" stroke="black" points="550.81,-84.8 385.19,-84.8 385.19,-48.8 550.81,-48.8 550.81,-84.8"/>
<text text-anchor="middle" x="468" y="-62.6" font-family="Times,serif" font-size="14.00">ZhaOpenCloseComponent</text>
</g>
<!-- ZhaOpenCloseComponent&#45;&gt;AppModule -->
<g id="edge8" class="edge">
<title>ZhaOpenCloseComponent&#45;&gt;AppModule</title>
<path fill="none" stroke="black" d="M468,-84.91C468,-104.14 468,-131.8 468,-131.8 468,-131.8 903.06,-131.8 903.06,-131.8"/>
<polygon fill="black" stroke="black" points="903.06,-135.3 913.06,-131.8 903.06,-128.3 903.06,-135.3"/>
</g>
<!-- ZhaPressureComponent -->
<g id="node9" class="node">
<title>ZhaPressureComponent</title>
<polygon fill="#ffffb3" stroke="black" points="367.03,-84.8 216.97,-84.8 216.97,-48.8 367.03,-48.8 367.03,-84.8"/>
<text text-anchor="middle" x="292" y="-62.6" font-family="Times,serif" font-size="14.00">ZhaPressureComponent</text>
</g>
<!-- ZhaPressureComponent&#45;&gt;AppModule -->
<g id="edge9" class="edge">
<title>ZhaPressureComponent&#45;&gt;AppModule</title>
<path fill="none" stroke="black" d="M292,-85.08C292,-106.12 292,-137.8 292,-137.8 292,-137.8 903.28,-137.8 903.28,-137.8"/>
<polygon fill="black" stroke="black" points="903.28,-141.3 913.28,-137.8 903.28,-134.3 903.28,-141.3"/>
</g>
<!-- ZhaTemperatureComponent -->
<g id="node10" class="node">
<title>ZhaTemperatureComponent</title>
<polygon fill="#ffffb3" stroke="black" points="198.11,-84.8 23.89,-84.8 23.89,-48.8 198.11,-48.8 198.11,-84.8"/>
<text text-anchor="middle" x="111" y="-62.6" font-family="Times,serif" font-size="14.00">ZhaTemperatureComponent</text>
</g>
<!-- ZhaTemperatureComponent&#45;&gt;AppModule -->
<g id="edge10" class="edge">
<title>ZhaTemperatureComponent&#45;&gt;AppModule</title>
<path fill="none" stroke="black" d="M111,-85.05C111,-107.82 111,-143.8 111,-143.8 111,-143.8 903.15,-143.8 903.15,-143.8"/>
<polygon fill="black" stroke="black" points="903.15,-147.3 913.15,-143.8 903.15,-140.3 903.15,-147.3"/>
</g>
<!-- AppComponent  -->
<g id="node13" class="node">
<title>AppComponent </title>
<polygon fill="#80b1d3" stroke="black" points="1009.44,-214.8 900.56,-214.8 900.56,-178.8 1009.44,-178.8 1009.44,-214.8"/>
<text text-anchor="middle" x="955" y="-192.6" font-family="Times,serif" font-size="14.00">AppComponent </text>
</g>
<!-- AppModule&#45;&gt;AppComponent  -->
<g id="edge12" class="edge">
<title>AppModule&#45;&gt;AppComponent </title>
<path fill="none" stroke="black" stroke-dasharray="1,5" d="M955,-149.91C955,-149.91 955,-168.79 955,-168.79"/>
<polygon fill="black" stroke="black" points="951.5,-168.79 955,-178.79 958.5,-168.79 951.5,-168.79"/>
</g>
<!-- AppRoutingModule -->
<g id="node12" class="node">
<title>AppRoutingModule</title>
<polygon fill="#8dd3c7" stroke="black" points="1724.28,-84.8 1721.28,-88.8 1700.28,-88.8 1697.28,-84.8 1595.72,-84.8 1595.72,-48.8 1724.28,-48.8 1724.28,-84.8"/>
<text text-anchor="middle" x="1660" y="-62.6" font-family="Times,serif" font-size="14.00">AppRoutingModule</text>
</g>
<!-- AppRoutingModule&#45;&gt;AppModule -->
<g id="edge11" class="edge">
<title>AppRoutingModule&#45;&gt;AppModule</title>
<path fill="none" stroke="black" d="M1660,-85.05C1660,-107.82 1660,-143.8 1660,-143.8 1660,-143.8 1006.73,-143.8 1006.73,-143.8"/>
<polygon fill="black" stroke="black" points="1006.73,-140.3 996.73,-143.8 1006.73,-147.3 1006.73,-140.3"/>
</g>
</g>
</svg>
